<?xml version="1.0" encoding="utf-8"?>
<!-- Generator: Adobe Illustrator 23.0.6, SVG Export Plug-In . SVG Version: 6.00 Build 0)  -->
<svg version="1.1" id="a594ac37-6d44-4297-8862-1cbd9c01c0b7"
	 xmlns="http://www.w3.org/2000/svg" xmlns:xlink="http://www.w3.org/1999/xlink" x="0px" y="0px" viewBox="0 0 1126.2 855"
	 style="enable-background:new 0 0 1126.2 855;" xml:space="preserve">
<style type="text/css">
	.st0{opacity:0.1;enable-background:new    ;}
	.st1{fill:#23293F;}
	.st2{fill:#2D4158;}
	.st3{fill:#E78230;}
	.st4{fill:none;}
	.st5{fill:#E5EBEB;}
	.st6{font-family:'AppleSDGothicNeo-Regular-KSCpc-EUC-H';}
	.st7{font-size:72px;}
</style>
<title>code review</title>
<ellipse class="st0" cx="565.2" cy="755.5" rx="431" ry="20.5"/>
<rect x="196.2" y="162" class="st1" width="752" height="590"/>
<path class="st2" d="M563.6,242.6H378.1c-1.2,0-2.3-1-2.3-2.2s1-2.3,2.2-2.3c0,0,0,0,0,0h185.5c1.2,0,2.2,1,2.2,2.3
	C565.9,241.6,564.9,242.6,563.6,242.6z"/>
<path class="st2" d="M766.7,267.4H474.9c-1.2,0-2.3-1-2.3-2.3s1-2.3,2.3-2.3l0,0h291.8c1.2,0,2.3,1,2.3,2.3S768,267.4,766.7,267.4z"
	/>
<path class="st2" d="M564.5,292.2H379c-1.2,0-2.3-1-2.3-2.3s1-2.3,2.3-2.3h185.5c1.2,0,2.3,1,2.3,2.3S565.8,292.2,564.5,292.2z"/>
<path class="st2" d="M766.7,292.6H581.2c-1.2,0-2.3-1-2.3-2.3s1-2.3,2.3-2.3h185.5c1.2,0,2.3,1,2.3,2.3S768,292.6,766.7,292.6z"/>
<path class="st2" d="M565,316.9H379.5c-1.2,0-2.3-1-2.3-2.3s1-2.3,2.3-2.3H565c1.2,0,2.3,1,2.3,2.3S566.2,316.9,565,316.9z"/>
<path class="st2" d="M565.4,341.7H379.9c-1.2,0-2.3-1-2.3-2.3s1-2.3,2.3-2.3h185.5c1.2,0,2.3,1,2.3,2.3S566.7,341.7,565.4,341.7z"/>
<path class="st2" d="M649.6,243.1h-53.1c-1.2,0-2.3-1-2.3-2.3s1-2.3,2.3-2.3l0,0h53.1c1.2,0,2.3,1,2.3,2.3S650.9,243.1,649.6,243.1z
	"/>
<path class="st2" d="M649.6,316.9h-53.1c-1.2,0-2.3-1-2.3-2.3s1-2.3,2.3-2.3l0,0h53.1c1.2,0,2.3,1,2.3,2.3S650.9,316.9,649.6,316.9z
	"/>
<path class="st2" d="M649.6,341.2h-53.1c-1.2,0-2.3-1-2.3-2.2s1-2.3,2.2-2.3c0,0,0,0,0,0h53.1c1.2,0,2.3,1,2.3,2.2
	S650.9,341.2,649.6,341.2C649.7,341.2,649.6,341.2,649.6,341.2z"/>
<path class="st2" d="M738.8,341.2h-53.1c-1.2,0-2.2-1-2.2-2.3c0-1.2,1-2.2,2.2-2.2h53.1c1.2,0,2.3,1,2.3,2.2
	S740.1,341.2,738.8,341.2C738.8,341.2,738.8,341.2,738.8,341.2z"/>
<path class="st2" d="M430.8,267.4h-53.1c-1.2,0-2.3-1-2.3-2.3s1-2.3,2.3-2.3l0,0h53.1c1.2,0,2.3,1,2.3,2.3S432,267.4,430.8,267.4z"
	/>
<path class="st2" d="M563.9,607.4H378.3c-1.2,0-2.3-1-2.3-2.3c0-1.2,1-2.3,2.3-2.3l0,0h185.5c1.2,0,2.3,1,2.3,2.3
	C566.1,606.4,565.1,607.4,563.9,607.4z"/>
<path class="st2" d="M563,656.9H377.4c-1.2,0-2.3-1-2.3-2.3c0-1.2,1-2.3,2.3-2.3l0,0H563c1.2,0,2.3,1,2.3,2.3
	C565.2,655.9,564.2,656.9,563,656.9z"/>
<path class="st2" d="M563.4,681.7H377.9c-1.2,0-2.3-1-2.3-2.3c0-1.2,1-2.3,2.3-2.3l0,0h185.5c1.2,0,2.3,1,2.3,2.3
	C565.7,680.6,564.7,681.7,563.4,681.7z"/>
<path class="st2" d="M642.7,657.3h-53.1c-1.2,0-2.3-1-2.3-2.3c0-1.2,1-2.3,2.3-2.3h53.1c1.2,0,2.3,1,2.3,2.3
	C644.9,656.3,643.9,657.3,642.7,657.3L642.7,657.3z"/>
<path class="st2" d="M642.7,681.7h-53.1c-1.2,0-2.3-1-2.3-2.3c0-1.2,1-2.3,2.3-2.3h53.1c1.2,0,2.3,1,2.3,2.3
	C644.9,680.6,643.9,681.7,642.7,681.7L642.7,681.7z"/>
<path class="st2" d="M731.8,657.3h-53.1c-1.2,0-2.3-1-2.3-2.3c0-1.2,1-2.3,2.3-2.3h53.1c1.2,0,2.3,1,2.3,2.3
	C734.1,656.3,733.1,657.3,731.8,657.3z"/>
<path class="st2" d="M766.9,632.1H475.2c-1.2,0-2.3-1-2.3-2.3c0-1.2,1-2.3,2.3-2.3h291.8c1.2,0,2.3,1,2.3,2.3
	C769.2,631.1,768.2,632.1,766.9,632.1z"/>
<path class="st2" d="M431,632.1h-53.1c-1.2,0-2.3-1-2.3-2.3c0-1.2,1-2.3,2.3-2.3l0,0H431c1.2,0,2.3,1,2.3,2.3
	C433.3,631.1,432.3,632.1,431,632.1z"/>
<path class="st2" d="M766.9,706.9H475.2c-1.2,0-2.3-1-2.3-2.3c0-1.2,1-2.3,2.3-2.3h291.8c1.2,0,2.3,1,2.3,2.3
	C769.2,705.9,768.2,706.9,766.9,706.9L766.9,706.9z"/>
<path class="st2" d="M431,706.9h-53.1c-1.2,0-2.3-1-2.3-2.3c0-1.2,1-2.3,2.3-2.3l0,0H431c1.2,0,2.3,1,2.3,2.3
	C433.3,705.9,432.3,706.9,431,706.9z"/>
<polygon class="st3" points="361,385.9 289,457 361,528.1 377.2,511.9 322.7,457.5 377.7,402.5 "/>
<polygon class="st3" points="778.3,385.9 850.4,457 778.3,528.1 762.1,511.9 816.6,457.5 761.7,402.5 "/>
<circle class="st3" cx="216.2" cy="177" r="9"/>
<circle class="st3" cx="240.2" cy="177" r="9"/>
<circle class="st3" cx="264.2" cy="177" r="9"/>
<rect x="196.2" y="192" class="st0" width="752" height="3"/>
<rect x="386" y="423" class="st4" width="372" height="192"/>
<text transform="matrix(1 0 0 1 386 477.5757)" class="st5 st6 st7">Coding Quiz</text>
</svg>
